Coordinates
version=1
nRows=16
nColumns=40
inDegrees=yes

Units are S.I. units (second, meters, Newtons, ...)
Angles are in degrees.

endheader
time	pelvis_tilt	pelvis_list	pelvis_rotation	pelvis_tx	pelvis_ty	pelvis_tz	hip_flexion_r	hip_adduction_r	hip_rotation_r	knee_angle_r	knee_angle_r_beta	ankle_angle_r	subtalar_angle_r	mtp_angle_r	hip_flexion_l	hip_adduction_l	hip_rotation_l	knee_angle_l	knee_angle_l_beta	ankle_angle_l	subtalar_angle_l	mtp_angle_l	lumbar_extension	lumbar_bending	lumbar_rotation	arm_flex_r	arm_add_r	arm_rot_r	elbow_flex_r	pro_sup_r	wrist_flex_r	wrist_dev_r	arm_flex_l	arm_add_l	arm_rot_l	elbow_flex_l	pro_sup_l	wrist_flex_l	wrist_dev_l
     47.99664286	     -3.28610008	     -3.53512941	     11.76412383	      1.14262134	      0.92255696	      0.55397028	      6.84192013	      3.56055645	    -17.37770523	     20.65120262	     20.65120262	     18.23058208	     -7.04874863	     -2.11544075	     29.83925141	     -7.95682543	      1.52119955	     19.41067616	     19.41067616	     -5.04800149	     -5.38077726	      2.05215034	     -9.71694603	      4.03815671	      4.41433360	     66.94266655	    -18.43470744	     -1.68024610	     74.32820445	     44.76729421	      0.00000000	      0.00000000	    -23.00470305	     -8.59737378	     20.77957363	     35.09056642	     43.37997783	      0.00000000	      0.00000000
     48.01828571	     -3.27705920	     -3.64568337	     11.77191999	      1.14382497	      0.92104847	      0.55103316	      6.53045358	      3.57843921	    -17.16750618	     20.86492492	     20.86492492	     18.77076683	     -7.29479860	     -2.07464896	     29.31041625	     -7.91026291	      1.95536420	     19.46796694	     19.46796694	     -4.36213166	     -5.77745112	      0.96178582	     -9.66232012	      3.93410073	      4.36587130	     67.27059219	    -18.27878721	     -0.83240570	     75.50653302	     44.72377013	      0.00000000	      0.00000000	    -22.84136564	     -8.52663928	     21.33338709	     34.69097107	     43.38120684	      0.00000000	      0.00000000
     48.03992857	     -3.23452816	     -3.73433767	     11.79897422	      1.14513289	      0.91970561	      0.54775198	      6.13218599	      3.55109049	    -17.03825280	     21.01659754	     21.01659754	     19.20563145	     -7.45853407	     -2.18195761	     28.80167044	     -7.82213349	      2.34976201	     19.67614647	     19.67614647	     -3.25243452	     -6.00549346	      0.46768528	     -9.61073199	      3.81189903	      4.44065247	     67.52338544	    -18.10269299	     -0.69563957	     75.84250692	     44.71339599	      0.00000000	      0.00000000	    -22.63862258	     -8.64192440	     21.38195314	     34.62481490	     43.38990314	      0.00000000	      0.00000000
     48.06157143	     -3.23253162	     -3.80607009	     11.87066565	      1.14649141	      0.91855658	      0.54409150	      5.70637472	      3.49541495	    -16.91930228	     21.04400726	     21.04400726	     19.56663537	     -7.63980058	     -2.23554297	     28.39098944	     -7.65880584	      2.73894394	     19.95794458	     19.95794458	     -2.11656739	     -6.25094041	      0.00173308	     -9.52301950	      3.67878999	      4.37471009	     67.58911652	    -17.91065899	     -0.52659576	     76.21721307	     44.69929444	      0.00000000	      0.00000000	    -22.35420382	     -8.84087936	     21.39593691	     34.53525739	     43.40208049	      0.00000000	      0.00000000
     48.08321429	     -3.25535485	     -3.86899967	     11.95311576	      1.14794868	      0.91772172	      0.54009218	      5.21155722	      3.43007457	    -16.80967712	     20.90707699	     20.90707699	     19.82620420	     -7.80041877	     -2.22165974	     28.08263791	     -7.44731931	      3.13937636	     20.35557104	     20.35557104	     -1.00127841	     -6.52856039	     -0.40625605	     -9.43736924	      3.54961531	      4.27791695	     67.53034578	    -17.74913713	     -0.33803025	     76.65926996	     44.68249516	      0.00000000	      0.00000000	    -21.97835418	     -9.09995525	     21.38615388	     34.41671758	     43.42014491	      0.00000000	      0.00000000
     48.10485714	     -3.32063377	     -3.91686600	     12.04715878	      1.14936297	      0.91724895	      0.53575682	      4.67947186	      3.32758821	    -16.74941041	     20.60672668	     20.60672668	     19.95572541	     -7.88395188	     -2.15542601	     27.88049895	     -7.18335752	      3.47838744	     20.80672777	     20.80672777	      0.01772219	     -6.83659028	     -0.71819791	     -9.32199254	      3.42664453	      4.20754761	     67.35084819	    -17.64373295	     -0.17697000	     77.02507279	     44.66856716	      0.00000000	      0.00000000	    -21.48052348	     -9.46653785	     21.32538121	     34.31891570	     43.44546951	      0.00000000	      0.00000000
     48.12650000	     -3.47117493	     -3.93485711	     12.08102101	      1.15074472	      0.91709521	      0.53113514	      4.18845185	      3.14883340	    -16.72351935	     20.22390681	     20.22390681	     19.98106147	     -7.87361169	     -2.06890381	     27.76264403	     -6.86899958	      3.72761920	     21.23839066	     21.23839066	      0.89049564	     -7.14899741	     -0.97226258	     -9.17383478	      3.29966172	      4.18113129	     67.15598297	    -17.54356649	     -0.05919762	     77.22242885	     44.66029609	      0.00000000	      0.00000000	    -20.90516421	     -9.89668994	     21.22391969	     34.29138733	     43.47300801	      0.00000000	      0.00000000
     48.14814286	     -3.57722820	     -4.06470978	     12.10588195	      1.15217792	      0.91741538	      0.52627509	      3.43771704	      3.13076894	    -16.78458031	     19.36401369	     19.36401369	     19.70184537	     -7.55119784	     -2.19437241	     27.78323283	     -6.63706567	      4.08215399	     21.97913505	     21.97913505	      2.37277274	     -7.40266666	      0.59253955	     -9.10478806	      3.32280501	      4.81176990	     66.47386164	    -18.50651337	      0.05892304	     78.80570476	     44.64742901	      0.00000000	      0.00000000	    -19.76162411	    -10.27462674	     21.15175715	     33.50062377	     43.61905467	      0.00000000	      0.00000000
     48.16978571	     -3.75249340	     -4.12660744	     12.02798583	      1.15355001	      0.91781395	      0.52125603	      2.84850320	      2.96386191	    -16.82177351	     18.71421098	     18.71421098	     19.49695503	     -7.21094319	     -2.07466131	     27.77484137	     -6.36468309	      4.23355231	     22.52159987	     22.52159987	      3.05275156	     -7.84700048	      0.46769799	     -8.96101909	      3.27103110	      4.90295922	     66.30383570	    -18.41675591	      0.07356841	     78.50967012	     44.66399152	      0.00000000	      0.00000000	    -19.13342171	    -10.74468010	     21.03981208	     33.61839602	     43.66034239	      0.00000000	      0.00000000
     48.19142857	     -4.05786619	     -4.08981939	     11.84960266	      1.15473464	      0.91825085	      0.51610164	      2.51070401	      2.60831056	    -16.73024025	     18.30172656	     18.30172656	     19.28949745	     -6.95556086	     -1.96296302	     27.79040624	     -6.01041572	      4.16521655	     22.89228696	     22.89228696	      3.53473024	     -8.19877792	      0.30968517	     -8.77174595	      3.14524853	      5.00180336	     66.18611264	    -18.16244447	      0.18036357	     78.34710078	     44.66745876	      0.00000000	      0.00000000	    -18.40508828	    -11.27736533	     20.89917078	     33.75496747	     43.69210994	      0.00000000	      0.00000000
     48.21307143	     -4.20423021	     -4.27984401	     11.61623054	      1.15605785	      0.91903097	      0.51079883	      1.77156451	      2.54064445	    -16.93798368	     17.34973735	     17.34973735	     18.90334467	     -6.01080877	     -1.91023344	     27.74666952	     -5.87995747	      4.31378387	     23.39417312	     23.39417312	      4.09267561	     -8.86270205	      0.50017986	     -8.67766146	      3.28595122	      5.34300071	     66.10401178	    -18.35135811	      0.08375657	     77.45881401	     44.70799883	      0.00000000	      0.00000000	    -17.71807269	    -11.73749376	     20.73392912	     33.99562743	     43.74215664	      0.00000000	      0.00000000
     48.23471429	     -4.45817479	     -4.30822192	     11.26920957	      1.15713024	      0.91978298	      0.50541261	      1.33949116	      2.15691859	    -17.18650941	     16.82215870	     16.82215870	     18.53224815	     -4.92385219	     -2.12800039	     27.65468825	     -5.62320842	      4.20225112	     23.67950078	     23.67950078	      4.64210599	     -9.32002766	      1.02219558	     -8.56881409	      3.27298820	      5.52890894	     66.22691506	    -18.17134265	      0.11686632	     76.17809789	     44.76473754	      0.00000000	      0.00000000	    -17.00186091	    -12.22333737	     20.58778787	     34.28970896	     43.80905933	      0.00000000	      0.00000000
     48.25635714	     -4.79508665	     -4.36508196	     10.82109488	      1.15803508	      0.92038304	      0.50008944	      1.20959389	      1.79204949	    -16.97682604	     16.62422368	     16.62422368	     18.19887109	     -4.54606143	     -2.04611473	     27.63155761	     -5.44865191	      3.89206484	     23.91111348	     23.91111348	      4.98795638	     -9.65612176	      0.95704436	     -8.44733070	      3.28949720	      5.61296517	     66.03465650	    -17.86505557	      0.25169232	     75.89227484	     44.77059519	      0.00000000	      0.00000000	    -16.27169368	    -12.65672344	     20.45958386	     34.46939379	     43.83883338	      0.00000000	      0.00000000
     48.27800000	     -5.04651969	     -4.44278028	     10.36741309	      1.15889490	      0.92114010	      0.49452570	      0.92842341	      1.31911812	    -17.50816664	     16.34856578	     16.34856578	     17.82642037	     -2.85376926	     -2.53490718	     27.52136946	     -5.28990973	      3.60196961	     24.17699370	     24.17699370	      5.72865918	     -9.88965764	      1.88756688	     -8.29857264	      3.36990816	      5.42953457	     66.50376661	    -17.22115982	      0.36757014	     72.78677471	     44.90206320	      0.00000000	      0.00000000	    -15.83624952	    -13.03359410	     20.33184729	     34.95238270	     43.95135745	      0.00000000	      0.00000000
     48.29964286	     -5.31711304	     -4.54511981	      9.82231128	      1.15963752	      0.92187797	      0.48910019	      0.85857416	      0.91680871	    -17.41118778	     16.33459446	     16.33459446	     17.44143838	     -2.13217099	     -2.54058688	     27.32842448	     -5.22172135	      3.15047622	     24.22602656	     24.22602656	      6.12811688	    -10.04194811	      1.91810703	     -8.22083245	      3.46222479	      5.73153482	     66.21427375	    -17.29808201	      0.32512605	     71.60933781	     44.94980050	      0.00000000	      0.00000000	    -14.99430243	    -13.43246926	     20.10657019	     35.30462710	     44.01593731	      0.00000000	      0.00000000
     48.32128571	     -5.59362196	     -4.60457469	      9.22514329	      1.16026056	      0.92261108	      0.48365365	      1.00328907	      0.35745904	    -17.40448100	     16.71765918	     16.71765918	     17.11173318	     -1.22468437	     -2.68111171	     27.07795654	     -5.14029830	      2.57624896	     24.17719629	     24.17719629	      6.52117014	    -10.07914576	      1.93238482	     -8.12717903	      3.54260591	      5.85162628	     65.88173419	    -17.17819984	      0.30023509	     70.02515531	     45.01061539	      0.00000000	      0.00000000	    -14.15758629	    -13.77491441	     19.93807102	     35.60052469	     44.07534508	      0.00000000	      0.00000000
